<?xml version="1.0" encoding="utf-8"?>
<!-- Svg Vector Icons : http://www.onlinewebfonts.com/icon -->
<!DOCTYPE svg PUBLIC "-//W3C//DTD SVG 1.1//EN" "http://www.w3.org/Graphics/SVG/1.1/DTD/svg11.dtd">
<svg version="1.1" xmlns="http://www.w3.org/2000/svg" xmlns:xlink="http://www.w3.org/1999/xlink" x="0px" y="0px" viewBox="0 0 1000 1000" enable-background="new 0 0 1000 1000" xml:space="preserve">
<metadata> Svg Vector Icons : http://www.onlinewebfonts.com/icon </metadata>
<g><path d="M405.8,240c-125.5,0-228.4,84.6-228.4,192.1c0,62,34.3,113,91.3,152.5l-22.8,68.1l79.8-39.6c28.5,5.6,51.5,11.3,80,11.3c7.1,0,14.3-0.3,21.3-0.9c-4.5-15-7-31-7-47.3c0-98.6,85.6-178.7,194.1-178.7c7.5,0,14.7,0.5,22,1.3C616.4,307.6,518,240,405.8,240z M392,576.1c0,6.6,0.3,13.1,1,19.7c-16-1.1-31-4.1-48.9-7.7l-13-2.6l-9.3-1.9l-8.6,4.3l-19.1,9.4l1.2-3.6l6.7-20l-17.2-12.2c-52.6-36.5-79.3-79.9-79.3-129.4c0-90.5,89.8-164,200.3-164c83.4,0,158.6,41.8,190.2,101.8C481.9,378.6,392,467.8,392,576.1z"/><path d="M491.4,336c17.2,0,28.5,11.2,28.5,28.2c0,16.9-11.4,28.3-28.5,28.3c-17.1,0-34.3-11.3-34.3-28.3S474.3,336,491.4,336z"/><path d="M331.6,392.6c-17.1,0-34.4-11.3-34.4-28.3s17.2-28.2,34.4-28.2c17.1,0,28.5,11.2,28.5,28.2C360.1,381.2,348.7,392.6,331.6,392.6z"/><path d="M822.6,573.5c0-90.4-91.3-163.9-194-163.9c-108.6,0-194.2,73.7-194.2,163.9c0,90.5,85.5,163.9,194.2,163.9c22.7,0,45.7-5.6,68.5-11.3l62.7,33.9l-17.1-56.4C788.4,669.6,822.6,624.4,822.6,573.5z M565.7,545.3c-11.4,0-22.8-11.2-22.8-22.6c0-11.3,11.4-22.6,22.8-22.6c17.2,0,28.5,11.3,28.5,22.6C594.2,534.1,582.9,545.3,565.7,545.3z M691.3,545.3c-11.3,0-22.7-11.2-22.7-22.6c0-11.3,11.4-22.6,22.7-22.6c17.1,0,28.5,11.3,28.5,22.6C719.8,534.1,708.4,545.3,691.3,545.3z"/><path d="M500,10.1c-270.6,0-490,219.4-490,489.9c0,270.6,219.4,490,490,490s490-219.4,490-490C990,229.4,770.6,10.1,500,10.1z M500,963.8c-255.7,0-463.8-208.1-463.8-463.8C36.2,244.4,244.3,36.3,500,36.3c255.7,0,463.8,207.9,463.8,463.7C963.8,755.6,755.7,963.8,500,963.8z"/></g>
</svg>